<?xml version="1.0" encoding="UTF-8" standalone="no"?>
<!-- Created with Inkscape (http://www.inkscape.org/) -->

<svg
   xmlns:dc="http://purl.org/dc/elements/1.1/"
   xmlns:cc="http://creativecommons.org/ns#"
   xmlns:rdf="http://www.w3.org/1999/02/22-rdf-syntax-ns#"
   xmlns:svg="http://www.w3.org/2000/svg"
   xmlns="http://www.w3.org/2000/svg"
   version="1.1"
   width="128"
   height="128"
   viewBox="0 0 128 128"
   id="Layer_1"
   xml:space="preserve"><metadata
   id="metadata2998"><rdf:RDF><cc:Work
       rdf:about=""><dc:format>image/svg+xml</dc:format><dc:type
         rdf:resource="http://purl.org/dc/dcmitype/StillImage" /><dc:title></dc:title></cc:Work></rdf:RDF></metadata><defs
   id="defs2996" />


<g
   transform="matrix(0.24570709,0,0,0.24570709,1.3173974,0.9255866)"
   id="g2994"
   style="stroke-width:8.49178791;stroke-miterlimit:4;stroke-dasharray:none"><polygon
     points="344.29,386.859 317.513,360.08 280.932,369.883 271.131,406.463 297.909,433.24 334.489,423.439 "
     transform="matrix(7,0,0,7,-1897.917,-2520.6802)"
     id="polygon2986"
     style="fill:none;stroke:#000000;stroke-width:1.16282487;stroke-miterlimit:4;stroke-dasharray:none" /><polygon
     points="271.131,386.859 297.909,360.08 334.489,369.883 344.29,406.463 317.513,433.24 280.932,423.439 "
     transform="matrix(7,0,0,7,-1897.917,-2520.6802)"
     id="polygon2988"
     style="fill:none;stroke:#000000;stroke-width:1.16282487;stroke-miterlimit:4;stroke-dasharray:none" /><g
     transform="matrix(6.6515795,0,0,6.9084683,-1793.8917,-2484.3133)"
     id="g2990"
     style="fill:none;stroke:#000000;stroke-width:1.20076787;stroke-miterlimit:4;stroke-dasharray:none">
	<path
   d="m 331.505,399.932 -4.822,4.932 c -0.974,1 -2.569,1 -3.544,0 l -8.9442,-9.36196 0,22.00198 c 0,1.41 -1.2278,2.31598 -2.6058,2.31598 l -6.817,0 c -1.379,0 -2.59997,-0.90599 -2.60442,-2.31598 l 0,-22.00198 -8.94458,9.36096 c -0.975,1 -2.568,1 -3.544,0 l -4.821,-4.932 c -0.975,-0.998 -0.975,-2.629 0,-3.627 l 21.552,-22.057 c 0.51103,-0.52301 1.16054,-0.73976 1.77119,-0.74694 0.65351,-0.008 1.26736,0.22964 1.77281,0.74694 l 21.552,22.057 c 0.973,0.999 0.973,2.63 -10e-4,3.628 z"
   id="path2992"
   style="fill:none;stroke:#000000;stroke-width:1.20076787;stroke-miterlimit:4;stroke-dasharray:none" />
</g></g>
</svg>